<?xml version="1.0" encoding="UTF-8"?>
<svg version="1.1" xmlns="http://www.w3.org/2000/svg" width="512" height="512">
<path d="M0 0 C1.38609954 -0.00644659 2.7721978 -0.01317625 4.15829468 -0.02017212 C7.05461777 -0.03208821 9.95082213 -0.03585908 12.84716797 -0.03466797 C16.51479589 -0.03446565 20.18164139 -0.06170192 23.84908485 -0.09621239 C26.7114494 -0.11872264 29.57363322 -0.12249817 32.43607712 -0.12144852 C34.43145275 -0.12488205 36.42677199 -0.14639409 38.42202759 -0.16854858 C57.42198253 -0.07510493 74.52029649 6.52482658 88.6484375 19.3359375 C89.42960937 20.03589844 90.21078125 20.73585938 91.015625 21.45703125 C96.67480074 26.80180834 100.8602935 32.54963933 104.6484375 39.3359375 C105.09960938 40.14160156 105.55078125 40.94726562 106.015625 41.77734375 C109.46508513 48.62270096 111.1833494 55.81812597 112.86181641 63.25561523 C114.73063443 71.39107621 117.611162 79.03687679 124.8671875 83.7890625 C133.26204686 88.53161292 141.79249159 90.15365227 151.359375 87.6171875 C158.55653786 84.57128922 163.89583804 80.13942182 167.5625 73.203125 C169.17262482 68.95193212 169.88423272 64.5936322 170.48510742 60.09643555 C171.35262886 54.18612867 173.27278648 50.18106547 178.02734375 46.48828125 C182.77672853 44.40025069 187.57091901 44.71672793 192.6484375 45.3359375 C197.22991997 47.50611341 199.58121229 49.74450336 201.6484375 54.3359375 C202.09964371 58.03506306 202.06836563 61.71471861 202.05249023 65.4375 C202.06278511 67.11902412 202.06278511 67.11902412 202.07328796 68.83451843 C202.09159845 72.54345348 202.08770988 76.2519669 202.08203125 79.9609375 C202.08659323 82.54581845 202.09189885 85.13069819 202.09791565 87.71557617 C202.10685682 93.13937882 202.1046492 98.56302026 202.09448242 103.98681641 C202.08304318 110.22671403 202.09700598 116.46617974 202.1238789 122.70602036 C202.14885683 128.73471064 202.15118695 134.76318175 202.14476204 140.79193115 C202.14460935 143.34341141 202.1506102 145.89490017 202.16305351 148.4463501 C202.25256499 169.82332378 200.36658307 186.80943006 185.015625 203.0390625 C179.58483584 208.30854109 174.8866886 212.02266289 167.6484375 214.3359375 C167.65731995 215.53783722 167.66620239 216.73973694 167.675354 217.97805786 C167.75645822 229.30756773 167.81641188 240.63701865 167.85568619 251.96675301 C167.87655636 257.79143503 167.90486413 263.6158826 167.95019531 269.44042969 C167.9936726 275.06198301 168.0175789 280.68331089 168.02794647 286.30501938 C168.03533439 288.44923323 168.04976127 290.59343482 168.07135773 292.73755264 C168.10041617 295.74213527 168.10439241 298.74578762 168.10253906 301.75048828 C168.12411072 303.07866325 168.12411072 303.07866325 168.14611816 304.43367004 C168.10979495 309.87965689 167.3362194 313.05251333 163.6484375 317.3359375 C157.1063773 321.40724337 149.62654926 323.52518783 142.33740234 325.91015625 C140.25509915 326.59194182 138.17624273 327.28353766 136.09765625 327.9765625 C125.94424813 331.3359375 125.94424813 331.3359375 123.6484375 331.3359375 C123.57367188 331.8721875 123.49890625 332.4084375 123.421875 332.9609375 C120.78358323 348.68722569 113.402466 364.86114475 104.5859375 378.0859375 C102.40708739 380.99782427 102.40708739 380.99782427 102.86987305 383.34033203 C103.70984844 385.49334517 104.63241986 386.79651562 106.16796875 388.515625 C106.95010742 389.40314453 106.95010742 389.40314453 107.74804688 390.30859375 C108.31330078 390.93636719 108.87855469 391.56414062 109.4609375 392.2109375 C110.6553925 393.56210711 111.84939313 394.91367851 113.04296875 396.265625 C113.64834473 396.9472168 114.2537207 397.62880859 114.87744141 398.33105469 C117.50271178 401.30303157 120.07611893 404.31815286 122.6484375 407.3359375 C126.7960682 412.18591769 130.96556091 417.01633345 135.1484375 421.8359375 C136.77086275 423.70800415 138.39302785 425.58029593 140.01513672 427.45263672 C141.11724209 428.72343504 142.22045872 429.99327036 143.32470703 431.26220703 C144.95662612 433.13822269 146.58415198 435.01797008 148.2109375 436.8984375 C148.69949219 437.45789063 149.18804687 438.01734375 149.69140625 438.59375 C155.34533757 445.14788827 158.35457733 449.59956352 158.03515625 458.48828125 C157.50974918 462.35718787 156.32724241 464.51233232 153.6484375 467.3359375 C149.99775656 469.83556713 146.63463576 471.05419791 142.35308838 472.1124115 C141.08341721 472.43049271 139.81374603 472.74857391 138.50559998 473.07629395 C137.10565923 473.41812397 135.70567926 473.75979339 134.30566406 474.10131836 C132.8249633 474.46894187 131.34444295 474.83729265 129.86408997 475.20631409 C125.84659787 476.20557572 121.82664087 477.19456864 117.8061533 478.18169856 C113.58325258 479.22032805 109.36265365 480.26822929 105.14178467 481.31507874 C98.04132836 483.07476156 90.93941623 484.82845642 83.83642578 486.57788086 C73.87295831 489.03182897 63.91208083 491.49615586 53.95174837 493.96279323 C40.55575049 497.27966961 27.15894898 500.5933499 13.75922203 503.89513206 C12.32143182 504.2495242 10.88371265 504.60420471 9.44607735 504.9592247 C6.16553764 505.76919178 2.88399128 506.5737025 -0.40029144 507.36845207 C-3.17317131 508.04043487 -5.93539861 508.74599309 -8.695961 509.4668293 C-21.34815326 512.70987791 -31.84452838 513.18891591 -44.61303711 509.88012695 C-45.67082367 509.61815521 -46.72861023 509.35618347 -47.81845093 509.08627319 C-51.30039095 508.22047213 -54.77697915 507.33491643 -58.25390625 506.44921875 C-60.73264029 505.82891208 -63.21169737 505.20989506 -65.6910553 504.59208679 C-71.57294671 503.1233009 -77.45161732 501.64224366 -83.32883602 500.15488642 C-90.44620473 498.35428919 -97.56769649 496.57027276 -104.68945312 494.78710938 C-112.33659045 492.87229122 -119.98321327 490.95558955 -127.62680054 489.02664185 C-140.32844917 485.82431859 -153.0393959 482.67164155 -165.77783203 479.61865234 C-168.24705328 479.02418093 -170.71625632 478.42963388 -173.18544006 477.83500671 C-177.81592469 476.72043484 -182.44973119 475.62139534 -187.08592224 474.53083801 C-189.16362214 474.03179983 -191.24119041 473.53221316 -193.31860352 473.03198242 C-194.72007094 472.7093961 -194.72007094 472.7093961 -196.14985085 472.38029289 C-202.35357736 470.86764008 -207.1640729 469.17363632 -211.19140625 463.94921875 C-213.32385638 459.14582097 -213.13492223 454.46829436 -212.3515625 449.3359375 C-210.94029338 446.11725354 -208.73858165 443.88757866 -206.3515625 441.3359375 C-205.38989057 440.22927608 -204.43330845 439.11818131 -203.48046875 438.00390625 C-201.26238431 435.41353209 -199.03074705 432.83610162 -196.78515625 430.26953125 C-193.59724203 426.62325924 -190.43737538 422.95391816 -187.2890625 419.2734375 C-186.79841309 418.70028809 -186.30776367 418.12713867 -185.80224609 417.53662109 C-184.81317851 416.38113793 -183.82424579 415.22553931 -182.83544922 414.06982422 C-180.84198179 411.74050443 -178.84684989 409.41261686 -176.85058594 407.08569336 C-175.85863223 405.92782166 -174.8683698 404.76849869 -173.87988281 403.60766602 C-171.25596312 400.5306736 -168.60080873 397.48933356 -165.89453125 394.484375 C-165.05245117 393.53691406 -165.05245117 393.53691406 -164.19335938 392.5703125 C-163.11244603 391.35540164 -162.02164071 390.14920094 -160.91992188 388.953125 C-159.26959982 387.14317827 -159.26959982 387.14317827 -157.3515625 384.3359375 C-157.71352875 381.41731207 -158.84712401 379.23856392 -160.35546875 376.74609375 C-165.21018136 368.50383642 -169.44462075 360.28749418 -172.8515625 351.3359375 C-173.17713135 350.489104 -173.5027002 349.64227051 -173.83813477 348.76977539 C-175.94770077 343.04365053 -177.32192981 337.34745756 -178.3515625 331.3359375 C-178.9904541 331.17013184 -179.6293457 331.00432617 -180.28759766 330.83349609 C-187.86701761 328.82163288 -195.30102359 326.478646 -202.7265625 323.9609375 C-204.44939453 323.40019531 -204.44939453 323.40019531 -206.20703125 322.828125 C-213.92834858 320.20341643 -217.81140334 318.14617624 -222.3515625 311.3359375 C-222.60883141 309.23440838 -222.60883141 309.23440838 -222.61898804 306.76359558 C-222.62751801 305.82575729 -222.63604797 304.88791901 -222.64483643 303.92166138 C-222.64393005 302.89459076 -222.64302368 301.86752014 -222.64208984 300.80932617 C-222.64880707 299.72612595 -222.65552429 298.64292572 -222.66244507 297.52690125 C-222.68148695 293.9358566 -222.68535255 290.34499828 -222.6875 286.75390625 C-222.69392412 284.26149925 -222.70065218 281.76909302 -222.70767212 279.27668762 C-222.71966073 274.04699492 -222.72343689 268.81734963 -222.72216797 263.58764648 C-222.7211 258.21675772 -222.7351741 252.84615663 -222.76318359 247.4753418 C-222.79650248 240.99442619 -222.81027992 234.51376924 -222.80894852 228.03277016 C-222.81130965 225.56202038 -222.82016184 223.091268 -222.83561325 220.62056541 C-222.85520573 217.16365249 -222.84946059 213.70766013 -222.83740234 210.25073242 C-222.84864136 209.2297345 -222.85988037 208.20873657 -222.87145996 207.15679932 C-222.81887197 201.22474084 -222.2812269 197.86575943 -218.3515625 193.3359375 C-214.34116176 190.05328788 -210.63926573 189.93185581 -205.64453125 190.04296875 C-204.55643913 190.04933601 -204.55643913 190.04933601 -203.44636536 190.05583191 C-201.14354359 190.07254207 -198.84161697 190.1101779 -196.5390625 190.1484375 C-194.9720179 190.16349434 -193.4049595 190.177181 -191.83789062 190.18945312 C-188.00877293 190.22242019 -184.18031916 190.27414758 -180.3515625 190.3359375 C-180.28787476 189.41844727 -180.28787476 189.41844727 -180.22290039 188.48242188 C-179.71474552 182.33991634 -178.60575764 176.71842835 -176.7890625 170.8359375 C-176.52585205 169.97718018 -176.2626416 169.11842285 -175.99145508 168.23364258 C-167.26042871 140.69032655 -150.94690129 114.63855217 -128.3515625 96.3359375 C-127.42988281 95.57667969 -126.50820312 94.81742187 -125.55859375 94.03515625 C-113.72770943 84.48537785 -93.13373007 68.3359375 -77.3515625 68.3359375 C-77.2690625 67.1190625 -77.1865625 65.9021875 -77.1015625 64.6484375 C-75.35106699 49.34958629 -68.48997716 35.73197993 -58.3515625 24.3359375 C-57.75859375 23.64886719 -57.165625 22.96179688 -56.5546875 22.25390625 C-41.68859274 6.14897026 -21.33004303 0.0363385 0 0 Z " fill="#8AA1A1" transform="translate(266.3515625,-0.3359375)"/>
<path d="M0 0 C1.38609954 -0.00644659 2.7721978 -0.01317625 4.15829468 -0.02017212 C7.05461777 -0.03208821 9.95082213 -0.03585908 12.84716797 -0.03466797 C16.51479589 -0.03446565 20.18164139 -0.06170192 23.84908485 -0.09621239 C26.7114494 -0.11872264 29.57363322 -0.12249817 32.43607712 -0.12144852 C34.43145275 -0.12488205 36.42677199 -0.14639409 38.42202759 -0.16854858 C57.42198253 -0.07510493 74.52029649 6.52482658 88.6484375 19.3359375 C89.42960938 20.03589844 90.21078125 20.73585938 91.015625 21.45703125 C96.67480074 26.80180834 100.8602935 32.54963933 104.6484375 39.3359375 C105.09960938 40.14160156 105.55078125 40.94726562 106.015625 41.77734375 C109.46508513 48.62270096 111.1833494 55.81812597 112.86181641 63.25561523 C114.73063443 71.39107621 117.611162 79.03687679 124.8671875 83.7890625 C133.26204686 88.53161292 141.79249159 90.15365227 151.359375 87.6171875 C158.55653786 84.57128922 163.89583804 80.13942182 167.5625 73.203125 C169.17262482 68.95193212 169.88423272 64.5936322 170.48510742 60.09643555 C171.35262886 54.18612867 173.27278648 50.18106547 178.02734375 46.48828125 C182.77672853 44.40025069 187.57091901 44.71672793 192.6484375 45.3359375 C197.22991997 47.50611341 199.58121229 49.74450336 201.6484375 54.3359375 C202.09964371 58.03506306 202.06836563 61.71471861 202.05249023 65.4375 C202.06278511 67.11902412 202.06278511 67.11902412 202.07328796 68.83451843 C202.09159845 72.54345348 202.08770988 76.2519669 202.08203125 79.9609375 C202.08659323 82.54581845 202.09189885 85.13069819 202.09791565 87.71557617 C202.10685682 93.13937882 202.1046492 98.56302026 202.09448242 103.98681641 C202.08304318 110.22671403 202.09700598 116.46617974 202.1238789 122.70602036 C202.14885683 128.73471064 202.15118695 134.76318175 202.14476204 140.79193115 C202.14460935 143.34341141 202.1506102 145.89490017 202.16305351 148.4463501 C202.25256499 169.82332378 200.36658307 186.80943006 185.015625 203.0390625 C179.58483584 208.30854109 174.8866886 212.02266289 167.6484375 214.3359375 C167.65731995 215.53783722 167.66620239 216.73973694 167.675354 217.97805786 C167.75645822 229.30756773 167.81641188 240.63701865 167.85568619 251.96675301 C167.87655636 257.79143503 167.90486413 263.6158826 167.95019531 269.44042969 C167.9936726 275.06198301 168.0175789 280.68331089 168.02794647 286.30501938 C168.03533439 288.44923323 168.04976127 290.59343482 168.07135773 292.73755264 C168.10041617 295.74213527 168.10439241 298.74578762 168.10253906 301.75048828 C168.12411072 303.07866325 168.12411072 303.07866325 168.14611816 304.43367004 C168.10979936 309.87899576 167.33855984 313.05492672 163.6484375 317.3359375 C157.31224876 321.24707384 150.21110443 323.33089827 143.16137695 325.63549805 C141.24403364 326.26261259 139.32998637 326.89977583 137.41601562 327.53710938 C131.14439918 329.61546362 124.86041292 331.57460781 118.50415039 333.37817383 C106.61468422 336.82838351 94.90664082 340.85236603 83.17470932 344.7974472 C78.93852564 346.22189116 74.70050762 347.64082287 70.46218872 349.05889893 C58.4250679 353.08723944 46.39042357 357.12294707 34.35742188 361.16357422 C27.68006649 363.40574615 21.00126944 365.64357006 14.32091248 367.87678361 C10.11212859 369.28405298 5.90519816 370.69668883 1.69959521 372.11343431 C-1.5269421 373.1986282 -4.75609952 374.27594127 -7.98486328 375.35449219 C-9.13923386 375.74512344 -10.29360443 376.1357547 -11.48295593 376.53822327 C-12.55343674 376.89418076 -13.62391754 377.25013824 -14.72683716 377.61688232 C-15.64959505 377.92656322 -16.57235294 378.23624413 -17.5230732 378.5553093 C-20.3515625 379.3359375 -20.3515625 379.3359375 -27.3515625 380.3359375 C-27.3515625 317.6359375 -27.3515625 254.9359375 -27.3515625 190.3359375 C22.8084375 190.3359375 72.9684375 190.3359375 124.6484375 190.3359375 C123.36901755 182.01970783 122.20918011 174.81375454 119.5234375 167.0234375 C119.21921875 166.12826416 118.915 165.23309082 118.6015625 164.31079102 C115.65988384 155.92147623 111.93077206 148.11209944 107.6484375 140.3359375 C107.08382812 139.28148437 106.51921875 138.22703125 105.9375 137.140625 C88.15498587 105.16549395 57.36988085 80.46391934 22.6484375 69.3359375 C22.58785156 70.5940625 22.52726562 71.8521875 22.46484375 73.1484375 C22.29175355 76.71780971 22.1108217 80.28669717 21.92578125 83.85546875 C21.75217678 87.20656103 21.59646454 90.55717248 21.46484375 93.91015625 C20.73652943 110.75340389 20.73652943 110.75340389 16.2578125 115.94921875 C11.30664802 120.38776267 7.09720705 120.46248744 0.68017578 120.51293945 C-0.01302765 120.51951065 -0.70623108 120.52608185 -1.42044067 120.53285217 C-3.70737833 120.5525132 -5.99425062 120.5642302 -8.28125 120.57421875 C-9.06443729 120.57829428 -9.84762459 120.5823698 -10.65454483 120.58656883 C-14.79817691 120.60739659 -18.94177618 120.6217138 -23.08544922 120.63110352 C-27.35824068 120.64217503 -31.63051241 120.67659244 -35.90312004 120.71627522 C-39.19573926 120.74244861 -42.48823455 120.75079585 -45.78094864 120.75438499 C-47.35578048 120.7592473 -48.93060692 120.77085122 -50.50533676 120.78942299 C-52.71214584 120.81383655 -54.91760825 120.81284655 -57.12451172 120.8059082 C-59.00503738 120.81470757 -59.00503738 120.81470757 -60.92355347 120.82368469 C-66.37802063 120.04760709 -69.39737933 117.59958548 -72.6640625 113.2734375 C-75.40836418 108.49631976 -75.64441648 104.21033806 -75.921875 98.828125 C-75.96722382 97.98806915 -76.01257263 97.14801331 -76.05929565 96.28250122 C-76.15386363 94.50225128 -76.24618168 92.72188061 -76.33642578 90.94140625 C-76.47498555 88.24166326 -76.62575121 85.54278845 -76.77734375 82.84375 C-76.86793875 81.10941408 -76.95780515 79.37503992 -77.046875 77.640625 C-77.09264679 76.84341034 -77.13841858 76.04619568 -77.18557739 75.224823 C-78.10240467 56.07657375 -71.01904799 38.57477138 -58.3515625 24.3359375 C-57.75859375 23.64886719 -57.165625 22.96179688 -56.5546875 22.25390625 C-41.68859274 6.14897026 -21.33004303 0.0363385 0 0 Z " fill="#77898A" transform="translate(266.3515625,-0.3359375)"/>
<path d="M0 0 C7.67096788 1.52479275 14.94416321 3.84822148 22.35083008 6.34204102 C23.67556893 6.78444991 25.00044259 7.22645528 26.32543945 7.66809082 C29.8987125 8.86031184 33.47012687 10.05801277 37.04124665 11.25666547 C40.78715089 12.51283015 44.5348564 13.76359702 48.28239441 15.01487732 C55.37231753 17.38300141 62.46078257 19.75545682 69.54865426 22.129713 C82.25401871 26.38552818 94.96185471 30.63395463 107.67023009 34.88076919 C112.12798478 36.37062868 116.58509626 37.86239279 121.04167807 39.35575688 C123.81016134 40.28319379 126.5790428 41.2094376 129.34801483 42.13541412 C131.24403149 42.76991458 133.13953272 43.40595459 135.03501892 44.04203796 C136.72762344 44.60771988 136.72762344 44.60771988 138.454422 45.18482971 C139.43458188 45.51315576 140.41474176 45.8414818 141.42460346 46.17975712 C149.49129626 48.74893326 155.91669176 48.45939655 163.87353516 45.56591797 C164.62596874 45.30414387 165.37840233 45.04236977 166.15363693 44.77266312 C167.79404961 44.20055721 169.43253215 43.6228933 171.06925583 43.04031754 C174.6741814 41.75782697 178.28882384 40.50378812 181.90300179 39.24765587 C183.8569736 38.56832355 185.81046832 37.88761764 187.76351738 37.20563698 C199.54385163 33.09668343 211.37691691 29.14637686 223.2109375 25.1953125 C225.4550236 24.44539301 227.69910317 23.695454 229.94317627 22.94549561 C234.46418926 21.43504752 238.98563107 19.92589111 243.50732422 18.41748047 C249.33308157 16.47368792 255.15694057 14.52426573 260.98045921 12.57377815 C265.51572775 11.05584812 270.05231307 9.5418852 274.58928299 8.02904892 C276.7420278 7.31046062 278.89427388 6.59037637 281.04600143 5.86874771 C284.01153957 4.87459003 286.97889041 3.88604541 289.94677734 2.89892578 C290.825354 2.6029953 291.70393066 2.30706482 292.60913086 2.00216675 C293.41224701 1.73631775 294.21536316 1.47046875 295.04281616 1.19656372 C295.7389823 0.96401949 296.43514843 0.73147526 297.15241051 0.49188423 C299 0 299 0 302 0 C299.73001887 16.28124395 292.01467144 33.13424284 282.9375 46.75 C280.75864989 49.66188677 280.75864989 49.66188677 281.22143555 52.00439453 C282.06141094 54.15740767 282.98398236 55.46057812 284.51953125 57.1796875 C285.04095703 57.77136719 285.56238281 58.36304688 286.09960938 58.97265625 C286.66486328 59.60042969 287.23011719 60.22820312 287.8125 60.875 C289.006955 62.22616961 290.20095563 63.57774101 291.39453125 64.9296875 C291.99990723 65.6112793 292.6052832 66.29287109 293.22900391 66.99511719 C295.85427428 69.96709407 298.42768143 72.98221536 301 76 C305.1476307 80.84998019 309.31712341 85.68039595 313.5 90.5 C315.12242525 92.37206665 316.74459035 94.24435843 318.36669922 96.11669922 C319.46880459 97.38749754 320.57202122 98.65733286 321.67626953 99.92626953 C323.30818862 101.80228519 324.93571448 103.68203258 326.5625 105.5625 C327.05105469 106.12195313 327.53960937 106.68140625 328.04296875 107.2578125 C333.69690007 113.81195077 336.70613983 118.26362602 336.38671875 127.15234375 C335.86131168 131.02125037 334.67880491 133.17639482 332 136 C328.34931906 138.49962963 324.98619826 139.71826041 320.70465088 140.776474 C319.43497971 141.09455521 318.16530853 141.41263641 316.85716248 141.74035645 C315.45722173 142.08218647 314.05724176 142.42385589 312.65722656 142.76538086 C311.1765258 143.13300437 309.69600545 143.50135515 308.21565247 143.87037659 C304.19816037 144.86963822 300.17820337 145.85863114 296.1577158 146.84576106 C291.93481508 147.88439055 287.71421615 148.93229179 283.49334717 149.97914124 C276.39289086 151.73882406 269.29097873 153.49251892 262.18798828 155.24194336 C252.22452081 157.69589147 242.26364333 160.16021836 232.30331087 162.62685573 C218.90731299 165.94373211 205.51051148 169.2574124 192.11078453 172.55919456 C190.67299432 172.9135867 189.23527515 173.26826721 187.79763985 173.6232872 C184.51710014 174.43325428 181.23555378 175.237765 177.95127106 176.03251457 C175.17839119 176.70449737 172.41616389 177.41005559 169.6556015 178.1308918 C157.00340924 181.37394041 146.50703412 181.85297841 133.73852539 178.54418945 C132.15184555 178.15123184 132.15184555 178.15123184 130.53311157 177.75033569 C127.05117155 176.88453463 123.57458335 175.99897893 120.09765625 175.11328125 C117.61892221 174.49297458 115.13986513 173.87395756 112.6605072 173.25614929 C106.77861579 171.7873634 100.89994518 170.30630616 95.02272648 168.81894892 C87.90535777 167.01835169 80.78386601 165.23433526 73.66210938 163.45117188 C66.01497205 161.53635372 58.36834923 159.61965205 50.72476196 157.69070435 C38.02311333 154.48838109 25.3121666 151.33570405 12.57373047 148.28271484 C10.10450922 147.68824343 7.63530618 147.09369638 5.16612244 146.49906921 C0.53563781 145.38449734 -4.09816869 144.28545784 -8.73435974 143.19490051 C-10.81205964 142.69586233 -12.88962791 142.19627566 -14.96704102 141.69604492 C-16.36850844 141.3734586 -16.36850844 141.3734586 -17.79828835 141.04435539 C-24.00201486 139.53170258 -28.8125104 137.83769882 -32.83984375 132.61328125 C-34.97229388 127.80988347 -34.78335973 123.13235686 -34 118 C-32.58873088 114.78131604 -30.38701915 112.55164116 -28 110 C-27.03832807 108.89333858 -26.08174595 107.78224381 -25.12890625 106.66796875 C-22.91082181 104.07759459 -20.67918455 101.50016412 -18.43359375 98.93359375 C-15.24567953 95.28732174 -12.08581288 91.61798066 -8.9375 87.9375 C-8.20152588 87.07777588 -8.20152588 87.07777588 -7.45068359 86.20068359 C-6.46161601 85.04520043 -5.47268329 83.88960181 -4.48388672 82.73388672 C-2.49041929 80.40456693 -0.49528739 78.07667936 1.50097656 75.74975586 C2.49293027 74.59188416 3.4831927 73.43256119 4.47167969 72.27172852 C7.09559938 69.1947361 9.75075377 66.15339606 12.45703125 63.1484375 C13.01841797 62.51679688 13.57980469 61.88515625 14.15820312 61.234375 C15.23911647 60.01946414 16.32992179 58.81326344 17.43164062 57.6171875 C19.08196268 55.80724077 19.08196268 55.80724077 21 53 C20.63803375 50.08137457 19.50443849 47.90262642 17.99609375 45.41015625 C13.14138114 37.16789892 8.90694175 28.95155668 5.5 20 C5.01164673 18.72974976 5.01164673 18.72974976 4.51342773 17.43383789 C2.40192943 11.70246806 1.06115743 6.00788442 0 0 Z " fill="#8AA1A1" transform="translate(88,331)"/>
<path d="M0 0 C1.38609954 -0.00644659 2.7721978 -0.01317625 4.15829468 -0.02017212 C7.05461777 -0.03208821 9.95082213 -0.03585908 12.84716797 -0.03466797 C16.51479589 -0.03446565 20.18164139 -0.06170192 23.84908485 -0.09621239 C26.7114494 -0.11872264 29.57363322 -0.12249817 32.43607712 -0.12144852 C34.43145275 -0.12488205 36.42677199 -0.14639409 38.42202759 -0.16854858 C57.42198253 -0.07510493 74.52029649 6.52482658 88.6484375 19.3359375 C89.42960938 20.03589844 90.21078125 20.73585938 91.015625 21.45703125 C96.67480074 26.80180834 100.8602935 32.54963933 104.6484375 39.3359375 C105.09960938 40.14160156 105.55078125 40.94726562 106.015625 41.77734375 C109.46508513 48.62270096 111.1833494 55.81812597 112.86181641 63.25561523 C114.73063443 71.39107621 117.611162 79.03687679 124.8671875 83.7890625 C133.26204686 88.53161292 141.79249159 90.15365227 151.359375 87.6171875 C158.55653786 84.57128922 163.89583804 80.13942182 167.5625 73.203125 C169.17262482 68.95193212 169.88423272 64.5936322 170.48510742 60.09643555 C171.35262886 54.18612867 173.27278648 50.18106547 178.02734375 46.48828125 C182.77672853 44.40025069 187.57091901 44.71672793 192.6484375 45.3359375 C197.22991997 47.50611341 199.58121229 49.74450336 201.6484375 54.3359375 C202.09964371 58.03506306 202.06836563 61.71471861 202.05249023 65.4375 C202.06278511 67.11902412 202.06278511 67.11902412 202.07328796 68.83451843 C202.09159845 72.54345348 202.08770988 76.2519669 202.08203125 79.9609375 C202.08659323 82.54581845 202.09189885 85.13069819 202.09791565 87.71557617 C202.10685682 93.13937882 202.1046492 98.56302026 202.09448242 103.98681641 C202.08304318 110.22671403 202.09700598 116.46617974 202.1238789 122.70602036 C202.14885683 128.73471064 202.15118695 134.76318175 202.14476204 140.79193115 C202.14460935 143.34341141 202.1506102 145.89490017 202.16305351 148.4463501 C202.25256499 169.82332378 200.36658307 186.80943006 185.015625 203.0390625 C179.64060239 208.25443097 174.89496063 212.17960444 167.6484375 214.3359375 C167.60976563 212.92441406 167.60976563 212.92441406 167.5703125 211.484375 C167.41739451 202.00489771 167.41739451 202.00489771 162.6484375 194.3359375 C158.0787787 191.59056763 154.58124549 190.93372279 149.28125 190.82421875 C148.60166229 190.80626755 147.92207458 190.78831635 147.22189331 190.76982117 C145.07246931 190.71606933 142.92326273 190.68193814 140.7734375 190.6484375 C139.30726163 190.61523312 137.84111433 190.5807406 136.375 190.54492188 C132.79968802 190.46036552 129.22429958 190.39338744 125.6484375 190.3359375 C125.50857422 189.74393555 125.36871094 189.15193359 125.22460938 188.54199219 C114.68062303 144.55220991 92.55117828 107.7657325 53.56005859 83.49707031 C43.64970558 77.47744848 33.69606565 72.87662572 22.6484375 69.3359375 C22.58785156 70.5940625 22.52726562 71.8521875 22.46484375 73.1484375 C22.29175355 76.71780971 22.1108217 80.28669717 21.92578125 83.85546875 C21.75217678 87.20656103 21.59646454 90.55717248 21.46484375 93.91015625 C20.73652943 110.75340389 20.73652943 110.75340389 16.2578125 115.94921875 C11.30664802 120.38776267 7.09720705 120.46248744 0.68017578 120.51293945 C-0.01302765 120.51951065 -0.70623108 120.52608185 -1.42044067 120.53285217 C-3.70737833 120.5525132 -5.99425062 120.5642302 -8.28125 120.57421875 C-9.06443729 120.57829428 -9.84762459 120.5823698 -10.65454483 120.58656883 C-14.79817691 120.60739659 -18.94177618 120.6217138 -23.08544922 120.63110352 C-27.35824068 120.64217503 -31.63051241 120.67659244 -35.90312004 120.71627522 C-39.19573926 120.74244861 -42.48823455 120.75079585 -45.78094864 120.75438499 C-47.35578048 120.7592473 -48.93060692 120.77085122 -50.50533676 120.78942299 C-52.71214584 120.81383655 -54.91760825 120.81284655 -57.12451172 120.8059082 C-59.00503738 120.81470757 -59.00503738 120.81470757 -60.92355347 120.82368469 C-66.37802063 120.04760709 -69.39737933 117.59958548 -72.6640625 113.2734375 C-75.40836418 108.49631976 -75.64441648 104.21033806 -75.921875 98.828125 C-75.96722382 97.98806915 -76.01257263 97.14801331 -76.05929565 96.28250122 C-76.15386363 94.50225128 -76.24618168 92.72188061 -76.33642578 90.94140625 C-76.47498555 88.24166326 -76.62575121 85.54278845 -76.77734375 82.84375 C-76.86793875 81.10941408 -76.95780515 79.37503992 -77.046875 77.640625 C-77.09264679 76.84341034 -77.13841858 76.04619568 -77.18557739 75.224823 C-78.10240467 56.07657375 -71.01904799 38.57477138 -58.3515625 24.3359375 C-57.75859375 23.64886719 -57.165625 22.96179688 -56.5546875 22.25390625 C-41.68859274 6.14897026 -21.33004303 0.0363385 0 0 Z " fill="#C32314" transform="translate(266.3515625,-0.3359375)"/>
<path d="M0 0 C0.05945801 1.70929688 0.05945801 1.70929688 0.12011719 3.453125 C0.2731126 7.71064551 0.45040039 11.96687666 0.63476562 16.22314453 C0.71098336 18.05979824 0.78075059 19.89673211 0.84375 21.73388672 C0.93585089 24.38610466 1.05168405 27.03642389 1.171875 29.6875 C1.19497742 30.49928711 1.21807983 31.31107422 1.24188232 32.14746094 C1.52169186 37.64097444 2.52289491 42.5966649 6 47 C10.45558459 50.63172111 13.47564779 51.50094748 19.17944336 51.50170898 C20.21727715 51.50981346 20.21727715 51.50981346 21.27607727 51.51808167 C23.54777716 51.53051941 25.81819704 51.51411104 28.08984375 51.49609375 C29.67875739 51.49624887 31.2676714 51.49774005 32.85658264 51.50050354 C36.18117064 51.50188537 39.50532612 51.48936762 42.82983398 51.46655273 C47.07779495 51.43819166 51.32503649 51.44090189 55.5730505 51.45364285 C58.85289076 51.46062008 62.13256667 51.45278714 65.41238594 51.44038582 C66.97797578 51.4358895 68.54358337 51.43551851 70.10917473 51.43945122 C72.30353414 51.44238307 74.4969255 51.42576366 76.69116211 51.40405273 C77.93659286 51.39864975 79.18202362 51.39324677 80.4651947 51.38768005 C85.90087871 50.79152098 89.79453682 49.4592449 93.375 45.125 C96.10368337 39.87753197 96.29150438 34.46185778 96.75390625 28.63671875 C96.81907944 27.84473587 96.88425262 27.05275299 96.95140076 26.23677063 C97.1578337 23.72056157 97.36022384 21.20404628 97.5625 18.6875 C97.70220678 16.97588963 97.84217783 15.26430081 97.98242188 13.55273438 C98.32467566 9.36873295 98.66330537 5.1844523 99 1 C103.82605529 1.72622015 107.99034778 3.02354872 112.4375 5 C113.13270752 5.30832764 113.82791504 5.61665527 114.54418945 5.93432617 C150.53810461 22.3336798 179.81152458 53.51303014 193.95947266 90.39746094 C197.93109071 101.14518893 201 110.41197907 201 122 C100.35 122 -0.3 122 -104 122 C-103.29949869 114.99498686 -102.4733084 109.09198345 -100.4375 102.5 C-100.17428955 101.64124268 -99.9110791 100.78248535 -99.63989258 99.89770508 C-90.90886621 72.35438905 -74.59533879 46.30261467 -52 28 C-51.07832031 27.24074219 -50.15664062 26.48148438 -49.20703125 25.69921875 C-36.85472041 15.72854977 -16.44584523 0 0 0 Z " fill="#B4D1D1" transform="translate(190,68)"/>
<path d="M0 0 C7.67096788 1.52479275 14.94416321 3.84822148 22.35083008 6.34204102 C23.67556893 6.78444991 25.00044259 7.22645528 26.32543945 7.66809082 C29.8987125 8.86031184 33.47012687 10.05801277 37.04124665 11.25666547 C40.78715089 12.51283015 44.5348564 13.76359702 48.28239441 15.01487732 C55.37231753 17.38300141 62.46078257 19.75545682 69.54865426 22.129713 C82.25401871 26.38552818 94.96185471 30.63395463 107.67023009 34.88076919 C112.12798478 36.37062868 116.58509626 37.86239279 121.04167807 39.35575688 C123.81016134 40.28319379 126.5790428 41.2094376 129.34801483 42.13541412 C131.24403149 42.76991458 133.13953272 43.40595459 135.03501892 44.04203796 C136.72762344 44.60771988 136.72762344 44.60771988 138.454422 45.18482971 C139.43458188 45.51315576 140.41474176 45.8414818 141.42460346 46.17975712 C149.49129626 48.74893326 155.91669176 48.45939655 163.87353516 45.56591797 C164.62596874 45.30414387 165.37840233 45.04236977 166.15363693 44.77266312 C167.79404961 44.20055721 169.43253215 43.6228933 171.06925583 43.04031754 C174.6741814 41.75782697 178.28882384 40.50378812 181.90300179 39.24765587 C183.8569736 38.56832355 185.81046832 37.88761764 187.76351738 37.20563698 C199.54385163 33.09668343 211.37691691 29.14637686 223.2109375 25.1953125 C225.4550236 24.44539301 227.69910317 23.695454 229.94317627 22.94549561 C234.46418926 21.43504752 238.98563107 19.92589111 243.50732422 18.41748047 C249.33308157 16.47368792 255.15694057 14.52426573 260.98045921 12.57377815 C265.51572775 11.05584812 270.05231307 9.5418852 274.58928299 8.02904892 C276.7420278 7.31046062 278.89427388 6.59037637 281.04600143 5.86874771 C284.01153957 4.87459003 286.97889041 3.88604541 289.94677734 2.89892578 C290.825354 2.6029953 291.70393066 2.30706482 292.60913086 2.00216675 C293.41224701 1.73631775 294.21536316 1.47046875 295.04281616 1.19656372 C295.7389823 0.96401949 296.43514843 0.73147526 297.15241051 0.49188423 C299 0 299 0 302 0 C299.56840542 17.4404025 290.63361231 37.91215694 280 52 C279.34 52 278.68 52 278 52 C277.79632813 52.67417969 277.59265625 53.34835937 277.3828125 54.04296875 C275.50253819 58.06378133 272.81285894 61.0161437 269.875 64.3125 C269.28388428 64.9818457 268.69276855 65.65119141 268.08374023 66.34082031 C266.39935902 68.23670058 264.70318322 70.12101119 263 72 C262.29230469 72.78246094 261.58460938 73.56492187 260.85546875 74.37109375 C236.46600816 99.9295481 198.80995421 117.57526581 163.46435547 119.11010742 C135.43909685 119.72522006 109.35431272 116.5859538 84 104 C83.29504395 103.65565918 82.59008789 103.31131836 81.86376953 102.95654297 C68.82581813 96.53434798 57.89022695 88.88248231 47.17578125 78.98828125 C45.42998626 77.39293179 43.66711898 75.90064268 41.8125 74.4375 C35.48497171 68.95364215 30.68388165 62.34361945 25.89453125 55.515625 C24.11409686 53.0048487 24.11409686 53.0048487 22.05859375 51.16796875 C14.18343351 42.87439392 9.52885516 30.51863472 5.5 20 C5.01128418 18.72974976 5.01128418 18.72974976 4.51269531 17.43383789 C2.402726 11.70205355 1.06114857 6.00783431 0 0 Z " fill="#9DB7B7" transform="translate(88,331)"/>
<path d="M0 0 C4.82605529 0.72622015 8.99034778 2.02354872 13.4375 4 C14.13270752 4.30832764 14.82791504 4.61665527 15.54418945 4.93432617 C51.53810461 21.3336798 80.81152458 52.51303014 94.95947266 89.39746094 C98.93109071 100.14518893 102 109.41197907 102 121 C51.84 121 1.68 121 -50 121 C-50 98.23 -50 75.46 -50 52 C-60.89 52 -71.78 52 -83 52 C-83 51.67 -83 51.34 -83 51 C-82.1636351 50.99413376 -81.3272702 50.98826752 -80.46556091 50.98222351 C-72.56498583 50.92420375 -64.66469066 50.85207406 -56.76438808 50.76428509 C-52.70321595 50.71964951 -48.64214255 50.68037868 -44.58081055 50.65356445 C-40.65783998 50.62746306 -36.73525076 50.58701316 -32.81251717 50.53681374 C-31.31953759 50.52019103 -29.82649213 50.50864821 -28.33343315 50.50238609 C-26.23417513 50.49269433 -24.13588265 50.46457774 -22.03686523 50.43237305 C-20.84439682 50.42126999 -19.65192841 50.41016693 -18.42332458 50.39872742 C-13.05291908 49.7732162 -9.16203884 48.40667859 -5.625 44.125 C-2.89631663 38.87753197 -2.70849562 33.46185778 -2.24609375 27.63671875 C-2.18092056 26.84473587 -2.11574738 26.05275299 -2.04859924 25.23677063 C-1.8421663 22.72056157 -1.63977616 20.20404628 -1.4375 17.6875 C-1.29779322 15.97588963 -1.15782217 14.26430081 -1.01757812 12.55273438 C-0.67532434 8.36873295 -0.33669463 4.1844523 0 0 Z " fill="#9EB7B7" transform="translate(289,69)"/>
<path d="M0 0 C2.89874417 1.29264127 4.76602526 2.56487568 6.8125 4.984375 C7.32425781 5.5825 7.83601562 6.180625 8.36328125 6.796875 C8.90339844 7.44140625 9.44351563 8.0859375 10 8.75 C10.57105469 9.4203125 11.14210938 10.090625 11.73046875 10.78125 C12.91543066 12.1728609 14.09770294 13.56676628 15.27734375 14.96289062 C17.83601799 17.98862444 20.41894525 20.99336413 23 24 C23.73186523 24.85513184 23.73186523 24.85513184 24.47851562 25.72753906 C28.13516584 30.00002093 31.81396138 34.25286378 35.5 38.5 C37.12242525 40.37206665 38.74459035 42.24435843 40.36669922 44.11669922 C41.46880459 45.38749754 42.57202122 46.65733286 43.67626953 47.92626953 C45.30818862 49.80228519 46.93571448 51.68203258 48.5625 53.5625 C49.05105469 54.12195313 49.53960937 54.68140625 50.04296875 55.2578125 C55.69690007 61.81195077 58.70613983 66.26362602 58.38671875 75.15234375 C57.86131168 79.02125037 56.67880491 81.17639482 54 84 C50.34931906 86.49962963 46.98619826 87.71826041 42.70465088 88.776474 C41.43497971 89.09455521 40.16530853 89.41263641 38.85716248 89.74035645 C37.45722173 90.08218647 36.05724176 90.42385589 34.65722656 90.76538086 C33.1765258 91.13300437 31.69600545 91.50135515 30.21565247 91.87037659 C26.19816037 92.86963822 22.17820337 93.85863114 18.1577158 94.84576106 C13.93481508 95.88439055 9.71421615 96.93229179 5.49334717 97.97914124 C-1.60710914 99.73882406 -8.70902127 101.49251892 -15.81201172 103.24194336 C-25.77547919 105.69589147 -35.73635667 108.16021836 -45.69668913 110.62685573 C-59.09268701 113.94373211 -72.48948852 117.2574124 -85.88921547 120.55919456 C-87.32700568 120.9135867 -88.76472485 121.26826721 -90.20236015 121.6232872 C-94.12248358 122.59116785 -98.04428338 123.55171097 -101.96821499 124.50407481 C-103.39316657 124.85188198 -104.81732898 125.20293081 -106.24089146 125.55638051 C-108.53190792 126.12507628 -110.82495791 126.68488551 -113.11846924 127.24342346 C-114.16733185 127.50708754 -114.16733185 127.50708754 -115.2373836 127.77607816 C-119.40472469 128.78001372 -122.6044265 129 -127 129 C-127 108.54 -127 88.08 -127 67 C-115.12 66.01 -115.12 66.01 -103 65 C-70.22582867 58.3693873 -43.90045087 45.1107738 -19 23 C-18.34644531 22.41992188 -17.69289063 21.83984375 -17.01953125 21.2421875 C-10.84770143 15.40753603 -3.80333492 7.60666984 0 0 Z " fill="#778A8A" transform="translate(366,383)"/>
<path d="M0 0 C7.65452753 1.52236022 14.91226109 3.83754412 22.30322266 6.32617188 C23.62309394 6.76695828 24.94310006 7.2073411 26.26322937 7.64735413 C29.08939951 8.59030778 31.91460115 9.53608875 34.73906326 10.48414612 C39.20967324 11.98474769 43.68238109 13.47902635 48.15536499 14.97253418 C55.23108914 17.33592613 62.30535571 19.70364787 69.37902868 22.07317114 C82.04685142 26.31645609 94.71712938 30.55240096 107.38796461 34.7866807 C111.82983489 36.27123546 116.2710612 37.75769672 120.71175027 39.24578094 C123.47709693 40.1721885 126.24284933 41.09738032 129.00869179 42.02230644 C130.89339997 42.65302412 132.7775883 43.28529456 134.66175842 43.9176178 C135.79428543 44.29611374 136.92681244 44.67460968 138.09365845 45.0645752 C139.07105295 45.39197945 140.04844746 45.7193837 141.05545998 46.05670929 C144.34764092 47.11136763 147.67602414 48.05029261 151 49 C151 72.1 151 95.2 151 119 C125.72731743 117.8512417 125.72731743 117.8512417 115 115 C113.20755859 114.58427734 113.20755859 114.58427734 111.37890625 114.16015625 C87.28745958 108.31904587 65.29595033 95.72126036 47.17578125 78.98828125 C45.42998626 77.39293179 43.66711898 75.90064268 41.8125 74.4375 C35.48497171 68.95364215 30.68388165 62.34361945 25.89453125 55.515625 C24.11409686 53.0048487 24.11409686 53.0048487 22.05859375 51.16796875 C14.18343351 42.87439392 9.52885516 30.51863472 5.5 20 C5.01128418 18.72974976 5.01128418 18.72974976 4.51269531 17.43383789 C2.402726 11.70205355 1.06114857 6.00783431 0 0 Z " fill="#B3D1D1" transform="translate(88,331)"/>
<path d="M0 0 C0 38.28 0 76.56 0 116 C-37 116 -37 116 -43 112 C-47.38965317 106.18667553 -48.20373743 101.6031067 -48.5703125 94.4921875 C-48.61566132 93.65213165 -48.66101013 92.81207581 -48.70773315 91.94656372 C-48.80230113 90.16631378 -48.89461918 88.38594311 -48.98486328 86.60546875 C-49.12342305 83.90572576 -49.27418871 81.20685095 -49.42578125 78.5078125 C-49.51637625 76.77347658 -49.60624265 75.03910242 -49.6953125 73.3046875 C-49.74108429 72.50747284 -49.78685608 71.71025818 -49.83401489 70.8888855 C-50.75084217 51.74063625 -43.66748549 34.23883388 -31 20 C-30.40703125 19.31292969 -29.8140625 18.62585938 -29.203125 17.91796875 C-22.85611295 11.04203903 -9.82387314 0 0 0 Z " fill="#F0361E" transform="translate(239,4)"/>
<path d="M0 0 C9.9 0 19.8 0 30 0 C30 40.92 30 81.84 30 124 C19.92757 121.25297364 9.95569531 118.14390378 0 115 C0 77.05 0 39.1 0 0 Z " fill="#3C4D5F" transform="translate(194,220)"/>
<path d="M0 0 C9.9 0 19.8 0 30 0 C30 37.62 30 75.24 30 114 C23.51569045 116.59372382 17.11603689 119.06693059 10.5 121.25 C9.30503906 121.6521875 9.30503906 121.6521875 8.0859375 122.0625 C2.25366709 124 2.25366709 124 0 124 C0 83.08 0 42.16 0 0 Z " fill="#233246" transform="translate(254,220)"/>
<path d="M0 0 C9.9 0 19.8 0 30 0 C30 34.32 30 68.64 30 104 C19.92757 101.25297364 9.95569531 98.14390378 0 95 C0 63.65 0 32.3 0 0 Z " fill="#3C4D5F" transform="translate(134,220)"/>
<path d="M0 0 C9.9 0 19.8 0 30 0 C30 31.02 30 62.04 30 94 C23.51569045 96.59372382 17.11603689 99.06693059 10.5 101.25 C9.30503906 101.6521875 9.30503906 101.6521875 8.0859375 102.0625 C2.25366709 104 2.25366709 104 0 104 C0 69.68 0 35.36 0 0 Z " fill="#233246" transform="translate(314,220)"/>
<path d="M0 0 C9.9 0 19.8 0 30 0 C30 27.72 30 55.44 30 84 C19.92757 81.25297364 9.95569531 78.14390378 0 75 C0 50.25 0 25.5 0 0 Z " fill="#3C4D5F" transform="translate(74,220)"/>
<path d="M0 0 C9.9 0 19.8 0 30 0 C30 24.42 30 48.84 30 74 C23.51569045 76.59372382 17.11603689 79.06693059 10.5 81.25 C9.30503906 81.6521875 9.30503906 81.6521875 8.0859375 82.0625 C2.25366709 84 2.25366709 84 0 84 C0 56.28 0 28.56 0 0 Z " fill="#233246" transform="translate(374,220)"/>
<path d="M0 0 C0.66 0.33 1.32 0.66 2 1 C-0.31 3.31 -2.62 5.62 -5 8 C-5 5 -5 5 -2.5 2.3125 C-1.675 1.549375 -0.85 0.78625 0 0 Z " fill="#D52414" transform="translate(445,46)"/>
</svg>
